<svg width="623" height="590" viewBox="0 0 623 590" fill="none" xmlns="http://www.w3.org/2000/svg">
<path fill-rule="evenodd" clip-rule="evenodd" d="M274.623 61.7919C330.587 68.2012 385.215 30.0462 438.84 47.2947C504.61 68.45 571.745 104.801 601.775 167.022C633.209 232.149 627.368 312.222 598.764 378.64C571.481 441.99 511.285 482.455 451.28 516.467C397.022 547.222 336.582 555.245 274.623 562.371C203.717 570.527 105.138 620.33 65.7494 560.81C20.1399 491.889 131.145 405.932 117.191 324.473C106.707 263.27 8.38234 246.196 1.28836 184.508C-6.3274 118.284 19.784 33.57 80.5973 6.26712C143.507 -21.9768 206.112 53.9457 274.623 61.7919Z" fill="#CAFC00"/>
</svg>
